<svg width="32.000000" height="32.000000" viewBox="0 0 32 32" fill="none" xmlns="http://www.w3.org/2000/svg" xmlns:xlink="http://www.w3.org/1999/xlink">
	<desc>
			Created with Pixso.
	</desc>
	<defs>
		<clipPath id="clip3_11192">
			<rect id="Combo" rx="-0.500000" width="31.000000" height="31.000000" transform="translate(0.500000 0.500000)" fill="white" fill-opacity="0"/>
		</clipPath>
	</defs>
	<g clip-path="url(#clip3_11192)">
		<mask id="mask3_11173" mask-type="alpha" maskUnits="userSpaceOnUse" x="0.000000" y="0.000000" width="16.400024" height="32.000000">
			<rect id="Rectangle 1" width="16.400002" height="32.000000" fill="#C4C4C4" fill-opacity="1.000000"/>
		</mask>
		<g mask="url(#mask3_11173)">
			<path id="Vector" d="M26.15 23C26.23 23.86 25.93 24.71 25.32 25.33C24.7 25.94 23.86 26.24 22.99 26.16C22.28 26.09 21.59 26.49 21.29 27.14C20.93 27.93 20.24 28.52 19.41 28.74C18.57 28.96 17.68 28.81 16.98 28.3C16.86 28.22 16.73 28.15 16.6 28.1L16.6 32C22.04 31.79 26.8 28.85 29.53 24.51L26.17 22.57C26.15 22.71 26.14 22.85 26.15 23Z" fill="#FF7010" fill-opacity="1.000000" fill-rule="nonzero"/>
			<path id="Vector" d="M13.33 28.84C13.08 28.84 12.83 28.81 12.58 28.74C11.75 28.52 11.06 27.93 10.7 27.14C10.4 26.49 9.71 26.09 9 26.16C8.13 26.24 7.29 25.94 6.67 25.33C6.06 24.71 5.76 23.86 5.84 23C5.85 22.85 5.84 22.71 5.82 22.57L2.46 24.51C5.19 28.85 9.95 31.79 15.4 32L15.4 28.1C15.26 28.15 15.13 28.22 15.01 28.3C14.52 28.66 13.93 28.84 13.33 28.84Z" fill="#FF7010" fill-opacity="1.000000" fill-rule="nonzero"/>
			<path id="Vector" d="M12.89 4.41C12.4 4.54 12 4.88 11.79 5.34C11.28 6.47 10.1 7.15 8.88 7.03C8.38 6.98 7.88 7.15 7.52 7.51C7.16 7.87 6.99 8.37 7.03 8.87C7.07 9.28 7.02 9.67 6.9 10.04L15.39 14.96L15.39 5.13C15.01 5.05 14.65 4.9 14.31 4.67C13.9 4.37 13.38 4.28 12.89 4.41ZM13.06 10.91C12.16 11.43 11 11.12 10.48 10.22C9.95 9.31 10.26 8.15 11.17 7.63C12.07 7.1 13.23 7.41 13.76 8.32C14.28 9.23 13.97 10.39 13.06 10.91Z" fill="#FF7010" fill-opacity="1.000000" fill-rule="nonzero"/>
			<path id="Vector" d="M4.86 21.3C4.07 20.94 3.49 20.25 3.26 19.41C3.04 18.57 3.2 17.69 3.7 16.98C4.12 16.39 4.12 15.6 3.7 15.01C3.2 14.3 3.04 13.42 3.26 12.58C3.49 11.74 4.07 11.05 4.86 10.69C4.99 10.63 5.11 10.55 5.22 10.46L1.85 8.52C0.67 10.75 0 13.29 0 16C0 18.7 0.67 21.24 1.85 23.47L5.22 21.53C5.11 21.44 4.99 21.36 4.86 21.3Z" fill="#FF7010" fill-opacity="1.000000" fill-rule="nonzero"/>
			<path id="Vector" d="M19.41 3.25C20.24 3.47 20.93 4.06 21.29 4.85C21.59 5.5 22.28 5.9 22.99 5.83C23.86 5.75 24.7 6.05 25.32 6.66C25.93 7.28 26.23 8.13 26.15 8.99C26.14 9.14 26.15 9.28 26.17 9.42L29.53 7.48C26.8 3.14 22.04 0.2 16.6 0L16.6 3.89C16.73 3.84 16.86 3.78 16.98 3.69C17.68 3.18 18.57 3.02 19.41 3.25Z" fill="#FF7010" fill-opacity="1.000000" fill-rule="nonzero"/>
			<path id="Vector" d="M4.42 19.1C4.55 19.59 4.89 19.99 5.35 20.2C5.72 20.37 6.04 20.62 6.3 20.91L14.8 16L6.3 11.08C6.04 11.37 5.72 11.62 5.35 11.79C4.89 12 4.55 12.4 4.42 12.89C4.29 13.38 4.38 13.9 4.68 14.31C5.4 15.32 5.4 16.67 4.68 17.68C4.38 18.09 4.29 18.61 4.42 19.1ZM8.24 14.1C9.28 14.1 10.13 14.95 10.13 16C10.13 17.04 9.28 17.89 8.24 17.89C7.19 17.89 6.34 17.04 6.34 16C6.34 14.95 7.19 14.1 8.24 14.1Z" fill="#FF7010" fill-opacity="1.000000" fill-rule="nonzero"/>
			<path id="Vector" d="M2.46 7.48L5.82 9.42C5.84 9.28 5.85 9.14 5.84 8.99C5.76 8.13 6.06 7.28 6.67 6.66C7.29 6.05 8.13 5.75 9 5.83C9.71 5.9 10.4 5.5 10.7 4.85C11.06 4.06 11.75 3.47 12.58 3.25C13.42 3.03 14.31 3.18 15.01 3.69C15.13 3.78 15.26 3.84 15.4 3.89L15.4 0C9.95 0.2 5.19 3.14 2.46 7.48Z" fill="#FF7010" fill-opacity="1.000000" fill-rule="nonzero"/>
			<path id="Vector" d="M30.14 8.52L26.77 10.46C26.88 10.55 27 10.63 27.13 10.69C27.92 11.05 28.5 11.74 28.73 12.58C28.95 13.42 28.79 14.3 28.29 15.01C27.87 15.6 27.87 16.39 28.29 16.98C28.79 17.69 28.95 18.57 28.73 19.41C28.5 20.25 27.92 20.94 27.13 21.3C27 21.36 26.88 21.44 26.77 21.53L30.14 23.47C31.32 21.24 32 18.7 32 16C32 13.29 31.32 10.75 30.14 8.52Z" fill="#FF7010" fill-opacity="1.000000" fill-rule="nonzero"/>
			<path id="Vector" d="M7.03 23.12C6.99 23.62 7.16 24.12 7.52 24.48C7.88 24.83 8.38 25.01 8.88 24.96C10.11 24.84 11.28 25.52 11.79 26.65C12 27.11 12.4 27.45 12.89 27.58C13.38 27.71 13.9 27.62 14.31 27.32C14.65 27.09 15.01 26.94 15.39 26.86L15.39 17.04L6.9 21.95C7.02 22.32 7.07 22.71 7.03 23.12ZM10.48 21.77C11 20.87 12.16 20.56 13.06 21.08C13.97 21.6 14.28 22.76 13.76 23.67C13.23 24.58 12.07 24.89 11.17 24.36C10.26 23.84 9.95 22.68 10.48 21.77Z" fill="#FF7010" fill-opacity="1.000000" fill-rule="nonzero"/>
			<path id="Vector" d="M19.1 27.58C19.59 27.45 19.99 27.11 20.2 26.65C20.71 25.52 21.89 24.85 23.11 24.96C23.61 25.01 24.11 24.83 24.47 24.48C24.83 24.12 25 23.62 24.96 23.12C24.92 22.71 24.97 22.32 25.09 21.95L16.6 17.04L16.6 26.86C16.98 26.94 17.34 27.09 17.68 27.32C18.09 27.62 18.61 27.71 19.1 27.58ZM18.93 21.08C19.83 20.56 20.99 20.87 21.51 21.77C22.04 22.68 21.73 23.84 20.82 24.36C19.92 24.89 18.76 24.58 18.23 23.67C17.71 22.76 18.02 21.6 18.93 21.08Z" fill="#FF7010" fill-opacity="1.000000" fill-rule="nonzero"/>
			<path id="Vector" d="M27.57 12.89C27.44 12.4 27.1 12 26.64 11.79C26.27 11.62 25.95 11.37 25.69 11.08L17.19 16L25.69 20.91C25.95 20.62 26.27 20.37 26.64 20.2C27.1 19.99 27.44 19.59 27.57 19.1C27.7 18.61 27.61 18.09 27.31 17.68C26.59 16.67 26.59 15.32 27.31 14.31C27.61 13.9 27.7 13.38 27.57 12.89ZM23.75 17.89C22.71 17.89 21.86 17.04 21.86 16C21.86 14.95 22.71 14.1 23.75 14.1C24.8 14.1 25.65 14.95 25.65 16C25.65 17.04 24.8 17.89 23.75 17.89Z" fill="#FF7010" fill-opacity="1.000000" fill-rule="nonzero"/>
			<path id="Vector" d="M24.96 8.88C25 8.37 24.83 7.87 24.47 7.51C24.11 7.16 23.61 6.98 23.11 7.03C21.88 7.14 20.71 6.47 20.2 5.34C19.99 4.88 19.59 4.54 19.1 4.41C18.61 4.28 18.09 4.37 17.68 4.67C17.34 4.9 16.98 5.05 16.6 5.13L16.6 14.96L25.09 10.04C24.97 9.67 24.92 9.28 24.96 8.88ZM21.51 10.22C20.99 11.12 19.83 11.43 18.93 10.91C18.02 10.39 17.71 9.23 18.23 8.32C18.76 7.41 19.92 7.1 20.82 7.63C21.73 8.15 22.04 9.31 21.51 10.22Z" fill="#FF7010" fill-opacity="1.000000" fill-rule="nonzero"/>
		</g>
		<path id="Vector" d="M29.91 26.26C29.2 24.89 29.12 23.29 29.7 21.86C30.33 20.3 30.66 18.5 30.66 16.66C30.66 13.52 29.78 11.59 28.93 9.72C28.18 8.05 27.46 6.45 27.35 3.99C27.71 3.98 27.99 3.69 27.99 3.33C27.99 2.96 27.7 2.66 27.33 2.66L27.33 0.66C27.33 0.29 27.03 0 26.66 0L21.33 0C20.96 0 20.66 0.29 20.66 0.66L20.66 2.66C20.29 2.66 19.99 2.96 19.99 3.33C19.99 3.69 20.28 3.98 20.64 3.99C20.53 6.45 19.81 8.05 19.05 9.72C18.21 11.59 17.33 13.52 17.33 16.66C17.33 18.5 17.66 20.3 18.29 21.86C18.86 23.29 18.79 24.89 18.08 26.26C17.59 27.2 17.33 28.26 17.33 29.33C17.33 30.08 17.46 30.83 17.71 31.55C17.81 31.82 18.06 32 18.34 32L29.65 32C29.93 32 30.18 31.82 30.27 31.55C30.53 30.83 30.66 30.08 30.66 29.33C30.66 28.26 30.4 27.2 29.91 26.26ZM26.01 4C26.03 4.47 26.08 4.91 26.13 5.33L21.86 5.33C21.92 4.91 21.96 4.47 21.98 4L26.01 4ZM28.46 12C28.62 12.42 28.77 12.86 28.9 13.33L19.09 13.33C19.22 12.86 19.37 12.42 19.53 12L28.46 12ZM28.9 20C28.78 20.45 28.64 20.9 28.48 21.33L19.51 21.33C19.35 20.9 19.21 20.45 19.09 20L28.9 20Z" fill="#FF7010" fill-opacity="1.000000" fill-rule="nonzero"/>
	</g>
</svg>
