<svg width="32.000000" height="32.000000" viewBox="0 0 32 32" fill="none" xmlns="http://www.w3.org/2000/svg" xmlns:xlink="http://www.w3.org/1999/xlink">
	<desc>
			Created with Pixso.
	</desc>
	<defs>
		<clipPath id="clip3_11150">
			<rect id="Dessert" rx="-0.500000" width="31.000000" height="31.000000" transform="translate(0.500000 0.500000)" fill="white" fill-opacity="0"/>
		</clipPath>
	</defs>
	<g clip-path="url(#clip3_11150)">
		<path id="Vector" d="M17.66 15.79C17.22 15.34 16.62 15.09 15.99 15.09C15.37 15.09 14.77 15.34 14.32 15.79C14.32 15.79 13.01 17.12 12.64 17.42L13.79 32L18.21 32L19.36 17.43C19.14 17.31 17.66 15.79 17.66 15.79Z" fill="#FF7010" fill-opacity="1.000000" fill-rule="nonzero"/>
		<path id="Vector" d="M9.37 15.64C8.95 15.21 8.38 14.97 7.79 14.94C7.19 14.92 6.61 15.13 6.16 15.52L3.86 17.48L6.07 29.94C6.17 30.52 6.47 31.04 6.91 31.41C7.35 31.78 7.9 31.99 8.47 31.99L12.48 31.99L11.34 17.51C11.08 17.41 9.37 15.64 9.37 15.64Z" fill="#FF7010" fill-opacity="1.000000" fill-rule="nonzero"/>
		<path id="Vector" d="M15.47 2.68C15.63 2.74 15.81 2.78 16 2.79C16.22 2.79 16.45 2.74 16.65 2.63C16.85 2.52 17.02 2.35 17.14 2.16C17.29 1.93 17.37 1.66 17.37 1.39C17.37 1.18 17.32 0.97 17.23 0.78C17.14 0.59 17 0.42 16.84 0.29C16.67 0.16 16.48 0.07 16.28 0.02C16.07 -0.02 15.86 -0.01 15.66 0.04C15.46 0.09 15.27 0.19 15.11 0.33C14.95 0.46 14.82 0.64 14.74 0.83C14.66 1.03 14.62 1.24 14.62 1.45C14.63 1.66 14.69 1.87 14.79 2.06C14.94 2.33 15.18 2.55 15.47 2.68Z" fill="#FF7010" fill-opacity="1.000000" fill-rule="nonzero"/>
		<path id="Vector" d="M23.9 8.51L23.53 8.42L23.44 8.04C22.85 5.7 20.76 3.8 18.06 3.15C17.82 3.47 17.5 3.72 17.14 3.89C16.78 4.06 16.39 4.14 15.99 4.12C14.9 4.12 13.99 3.2 13.93 3.14C11.23 3.79 9.15 5.67 8.56 8.02L8.48 8.42L8.1 8.52C6.52 8.94 5.16 9.96 4.3 11.37C3.43 12.78 3.13 14.47 3.46 16.1L5.31 14.5C6.02 13.9 6.91 13.58 7.83 13.62C8.75 13.65 9.63 14.03 10.28 14.68L11.92 16.3L13.42 14.82C13.76 14.48 14.16 14.21 14.6 14.03C15.04 13.84 15.52 13.75 15.99 13.76C16.96 13.77 17.89 14.16 18.58 14.85L20.05 16.31L21.72 14.67C22.38 14.02 23.25 13.64 24.17 13.61C25.08 13.58 25.98 13.9 26.68 14.5L28.53 16.1C28.86 14.47 28.56 12.77 27.7 11.36C26.84 9.95 25.48 8.93 23.9 8.51Z" fill="#FF7010" fill-opacity="1.000000" fill-rule="nonzero"/>
		<path id="Vector" d="M22.63 15.62C22.63 15.62 20.87 17.4 20.66 17.48L19.52 31.98L23.53 31.98C24.1 31.99 24.65 31.78 25.09 31.41C25.53 31.04 25.83 30.52 25.93 29.94L27.03 23.75L28.12 17.48L25.82 15.51C25.37 15.12 24.8 14.92 24.21 14.94C23.62 14.96 23.05 15.2 22.63 15.62Z" fill="#FF7010" fill-opacity="1.000000" fill-rule="nonzero"/>
	</g>
</svg>
