<svg width="32.000000" height="32.000000" viewBox="0 0 32 32" fill="none" xmlns="http://www.w3.org/2000/svg" xmlns:xlink="http://www.w3.org/1999/xlink">
	<desc>
			Created with Pixso.
	</desc>
	<defs>
		<clipPath id="clip3_11157">
			<rect id="Fire" rx="-0.500000" width="31.000000" height="31.000000" transform="translate(0.500000 0.500000)" fill="white" fill-opacity="0"/>
		</clipPath>
	</defs>
	<g clip-path="url(#clip3_11157)">
		<path id="Vector" d="M27.93 18.73C27.56 13.96 25.34 10.97 23.38 8.33C21.56 5.89 20 3.78 20 0.66C20 0.41 19.86 0.18 19.63 0.07C19.41 -0.05 19.14 -0.03 18.94 0.12C16 2.23 13.54 5.78 12.68 9.17C12.09 11.52 12.01 14.18 12 15.93C9.28 15.35 8.66 11.28 8.66 11.23C8.62 11.02 8.5 10.84 8.31 10.74C8.12 10.64 7.9 10.63 7.7 10.73C7.56 10.8 4.2 12.5 4.01 19.31C4 19.54 4 19.77 4 20C4 26.61 9.38 31.99 16 31.99C16 31.99 16.01 32 16.02 31.99C16.02 31.99 16.03 31.99 16.03 31.99C22.63 31.98 28 26.6 28 20C28 19.66 27.93 18.73 27.93 18.73ZM16 30.66C13.79 30.66 12 28.75 12 26.4C12 26.32 11.99 26.24 12 26.14C12.03 25.15 12.22 24.47 12.42 24.02C12.81 24.85 13.5 25.62 14.62 25.62C14.99 25.62 15.29 25.32 15.29 24.95C15.29 24 15.31 22.91 15.55 21.92C15.76 21.04 16.26 20.11 16.89 19.36C17.18 20.33 17.73 21.12 18.27 21.88C19.04 22.98 19.84 24.11 19.98 26.05C19.99 26.16 20 26.28 20 26.4C20 28.75 18.2 30.66 16 30.66Z" fill="#E23535" fill-opacity="1.000000" fill-rule="nonzero"/>
	</g>
</svg>
