<svg width="20.000000" height="20.000000" viewBox="0 0 20 20" fill="none" xmlns="http://www.w3.org/2000/svg" xmlns:xlink="http://www.w3.org/1999/xlink">
	<desc>
			Created with Pixso.
	</desc>
	<defs>
		<clipPath id="clip2_8771">
			<rect id="Location" rx="-0.500000" width="19.000000" height="19.000000" transform="translate(0.500000 0.500000)" fill="white" fill-opacity="0"/>
		</clipPath>
	</defs>
	<g clip-path="url(#clip2_8771)">
		<path id="Vector" d="M10.02 3.9C8.54 3.89 7.33 5.11 7.32 6.62C7.31 8.12 8.5 9.36 9.97 9.37C9.98 9.37 9.99 9.37 10 9.37C11.46 9.37 12.66 8.16 12.67 6.66C12.68 5.15 11.49 3.91 10.02 3.9ZM10 8.59C9.99 8.59 9.99 8.59 9.98 8.59C8.93 8.58 8.08 7.7 8.08 6.62C8.09 5.55 8.95 4.68 9.99 4.68C10 4.68 10 4.68 10.01 4.68C11.06 4.69 11.91 5.57 11.91 6.65C11.9 7.72 11.04 8.59 10 8.59Z" fill="#FF7010" fill-opacity="1.000000" fill-rule="nonzero"/>
		<path id="Vector" d="M12.34 14.7C14.88 11.36 16.47 9.61 16.49 6.69C16.52 3 13.6 0 9.99 0C6.43 0 3.52 2.94 3.5 6.59C3.47 9.59 5.09 11.33 7.65 14.7C5.11 15.09 3.5 16.07 3.5 17.26C3.5 18.06 4.22 18.78 5.54 19.28C6.73 19.74 8.32 20 10 20C11.67 20 13.26 19.74 14.46 19.28C15.77 18.78 16.49 18.06 16.49 17.26C16.49 16.07 14.89 15.09 12.34 14.7ZM4.26 6.59C4.28 3.38 6.85 0.78 9.99 0.78C13.17 0.78 15.75 3.43 15.73 6.68C15.71 9.46 14.02 11.17 11.33 14.75C10.85 15.39 10.41 16 10 16.59C9.58 16 9.15 15.4 8.66 14.75C5.86 11.02 4.24 9.44 4.26 6.59ZM10 19.21C6.71 19.21 4.26 18.18 4.26 17.26C4.26 16.58 5.73 15.71 8.19 15.41C8.74 16.14 9.21 16.81 9.68 17.49C9.75 17.59 9.87 17.65 9.99 17.65C9.99 17.65 9.99 17.65 10 17.65C10.12 17.65 10.24 17.59 10.31 17.49C10.77 16.82 11.26 16.14 11.8 15.41C14.27 15.71 15.73 16.58 15.73 17.26C15.73 18.18 13.28 19.21 10 19.21Z" fill="#FF7010" fill-opacity="1.000000" fill-rule="nonzero"/>
	</g>
</svg>
