<svg width="32.000000" height="32.000000" viewBox="0 0 32 32" fill="none" xmlns="http://www.w3.org/2000/svg" xmlns:xlink="http://www.w3.org/1999/xlink">
	<desc>
			Created with Pixso.
	</desc>
	<defs>
		<clipPath id="clip3_11200">
			<rect id="Sauce" rx="-0.500000" width="31.000000" height="31.000000" transform="translate(0.500000 0.500000)" fill="white" fill-opacity="0"/>
		</clipPath>
	</defs>
	<g clip-path="url(#clip3_11200)">
		<path id="Vector" d="M31.98 10.42C31.94 7.97 29.95 6 27.51 6C25.33 6 23.51 7.57 23.12 9.65C22.35 9.99 21.02 10.54 20.23 10.67C19.27 10.83 18.11 10.88 16.79 10.81C14.26 10.69 11.73 9.86 9.48 8.42C6.65 6.61 4.24 6.19 1.66 7.05C0.67 7.38 0 8.32 0 9.39C0 9.74 0.18 10.06 0.48 10.23C0.83 10.41 1.15 10.58 1.46 10.74C3.15 11.59 4.09 12.06 4.7 14.66C5.16 16.61 5.97 18.23 7.1 19.5C7.58 20.04 8.12 20.51 8.71 20.92L21.54 20.92C23.48 19.46 24.67 17.25 24.99 14.45C25.19 12.78 25.02 11.31 24.91 10.59C24.91 10.56 24.92 10.52 24.92 10.48C24.92 9.05 26.08 7.89 27.51 7.89C28.94 7.89 30.1 9.05 30.1 10.48C30.1 10.52 30.1 10.57 30.11 10.61C30.11 10.62 30.22 11.56 29.64 12.23C29.16 12.78 28.33 13.06 27.15 13.06C26.63 13.06 26.21 13.49 26.21 14.01C26.21 14.53 26.63 14.96 27.15 14.96C28.89 14.96 30.21 14.46 31.05 13.47C32.09 12.26 32.02 10.79 31.98 10.42Z" fill="#FF7010" fill-opacity="1.000000" fill-rule="nonzero"/>
		<path id="Vector" d="M8.72 22.81C8.66 23.02 8.64 23.23 8.64 23.45L8.64 25.05C8.64 25.57 9.06 26 9.57 26L20.74 26C21.26 26 21.68 25.57 21.68 25.05L21.68 23.45C21.68 23.23 21.65 23.02 21.6 22.81L8.72 22.81Z" fill="#FF7010" fill-opacity="1.000000" fill-rule="nonzero"/>
	</g>
</svg>
