<svg width="24.000000" height="24.000000" viewBox="0 0 24 24" fill="none" xmlns="http://www.w3.org/2000/svg" xmlns:xlink="http://www.w3.org/1999/xlink">
	<desc>
			Created with Pixso.
	</desc>
	<defs>
		<clipPath id="clip2_8789">
			<rect id="Shopping bag" rx="-0.500000" width="23.000000" height="23.000000" transform="translate(0.500000 0.500000)" fill="white" fill-opacity="0"/>
		</clipPath>
	</defs>
	<g clip-path="url(#clip2_8789)">
		<path id="Vector" d="M7.78 15.5L20.48 15.5C20.79 15.5 21.07 15.29 21.16 14.99L23.97 5.19C24.03 4.98 23.99 4.75 23.85 4.57C23.72 4.4 23.51 4.29 23.29 4.29L6.15 4.29L5.65 2.04C5.58 1.72 5.29 1.5 4.96 1.5L0.7 1.5C0.31 1.5 0 1.81 0 2.2C0 2.58 0.31 2.89 0.7 2.89L4.4 2.89L6.94 14.27C6.19 14.59 5.67 15.33 5.67 16.2C5.67 17.35 6.61 18.29 7.78 18.29L20.48 18.29C20.87 18.29 21.18 17.98 21.18 17.6C21.18 17.21 20.87 16.89 20.48 16.89L7.78 16.89C7.39 16.89 7.07 16.58 7.07 16.2C7.07 15.81 7.39 15.5 7.78 15.5Z" fill="#FFFFFF" fill-opacity="1.000000" fill-rule="nonzero"/>
		<path id="Vector" d="M7.07 20.39C7.07 21.55 8.02 22.5 9.18 22.5C10.35 22.5 11.29 21.55 11.29 20.39C11.29 19.24 10.35 18.29 9.18 18.29C8.02 18.29 7.07 19.24 7.07 20.39Z" fill="#FFFFFF" fill-opacity="1.000000" fill-rule="nonzero"/>
		<path id="Vector" d="M16.96 20.39C16.96 21.55 17.91 22.5 19.07 22.5C20.24 22.5 21.18 21.55 21.18 20.39C21.18 19.24 20.24 18.29 19.07 18.29C17.91 18.29 16.96 19.24 16.96 20.39Z" fill="#FFFFFF" fill-opacity="1.000000" fill-rule="nonzero"/>
	</g>
</svg>
