<svg width="32.000000" height="32.000000" viewBox="0 0 32 32" fill="none" xmlns="http://www.w3.org/2000/svg" xmlns:xlink="http://www.w3.org/1999/xlink">
	<desc>
			Created with Pixso.
	</desc>
	<defs>
		<clipPath id="clip3_11139">
			<rect id="Snacks" rx="-0.500000" width="31.000000" height="31.000000" transform="translate(0.500000 0.500000)" fill="white" fill-opacity="0"/>
		</clipPath>
	</defs>
	<g clip-path="url(#clip3_11139)">
		<path id="path4528" d="M9.06 0C8.76 0 8.54 0.23 8.53 0.53L8.53 8.62C9.06 8.82 9.48 9.29 9.57 9.87C9.58 9.89 9.79 11.09 10.66 12.35L10.66 0.53C10.66 0.23 10.42 0 10.13 0L9.06 0ZM21.86 0C21.56 0 21.34 0.23 21.33 0.53L21.33 12.34C22.2 11.07 22.42 9.86 22.42 9.86C22.51 9.28 22.93 8.82 23.46 8.62L23.46 0.53C23.46 0.23 23.22 0 22.93 0L21.86 0ZM12.26 2.13C11.96 2.13 11.73 2.37 11.73 2.66L11.73 13.55C12.27 14.02 12.95 14.42 13.86 14.67L13.86 2.66C13.86 2.37 13.62 2.13 13.33 2.13L12.26 2.13ZM18.66 2.13C18.36 2.13 18.13 2.37 18.13 2.66L18.13 14.67C19.03 14.42 19.71 14.02 20.26 13.54L20.26 2.66C20.26 2.37 20.02 2.13 19.73 2.13L18.66 2.13ZM5.86 4.26C5.56 4.26 5.33 4.5 5.33 4.79L5.33 8.53L7.46 8.53L7.46 4.79C7.46 4.5 7.22 4.26 6.93 4.26L5.86 4.26ZM15.46 4.26C15.16 4.26 14.93 4.5 14.93 4.79L14.93 14.87C15.26 14.91 15.61 14.93 15.99 14.93C16.37 14.93 16.73 14.91 17.06 14.87L17.06 4.79C17.06 4.5 16.82 4.26 16.53 4.26L15.46 4.26ZM25.06 4.26C24.76 4.26 24.53 4.5 24.53 4.79L24.53 8.53L26.66 8.53L26.66 4.79C26.66 4.5 26.42 4.26 26.13 4.26L25.06 4.26ZM3.19 9.59C2.87 9.6 2.62 9.88 2.67 10.2L5.33 30.46C5.43 31.25 6.05 32 6.93 32L25.06 32C25.94 32 26.56 31.26 26.65 30.46L29.32 10.2C29.37 9.88 29.12 9.59 28.79 9.59L23.99 9.59C23.73 9.6 23.51 9.79 23.47 10.04C23.47 10.04 23.22 11.52 22.16 13.02C21.1 14.51 19.3 16 15.99 16C12.69 16 10.89 14.51 9.83 13.02C8.77 11.52 8.52 10.04 8.52 10.04C8.48 9.78 8.26 9.59 7.99 9.59L3.19 9.59ZM15.99 19.73C18.34 19.73 20.26 21.64 20.26 23.99C20.26 26.34 18.34 28.26 15.99 28.26C13.64 28.26 11.72 26.34 11.72 23.99C11.72 21.64 13.64 19.73 15.99 19.73Z" fill="#FF7010" fill-opacity="1.000000" fill-rule="nonzero"/>
	</g>
</svg>
