<svg width="32.000000" height="32.000000" viewBox="0 0 32 32" fill="none" xmlns="http://www.w3.org/2000/svg" xmlns:xlink="http://www.w3.org/1999/xlink">
	<desc>
			Created with Pixso.
	</desc>
	<defs>
		<clipPath id="clip3_11168">
			<rect id="Sushi" rx="-0.500000" width="31.000000" height="31.000000" transform="translate(0.500000 0.500000)" fill="white" fill-opacity="0"/>
		</clipPath>
	</defs>
	<g clip-path="url(#clip3_11168)">
		<path id="Vector" d="M19.45 19.38C15.2 19.38 11.19 20 7.86 21.19C7.03 21.48 6.18 21.63 5.31 21.63C4.24 21.63 3.21 21.4 2.26 20.98C3.04 23.87 5.68 26 8.81 26L24.31 26C27.47 26 30.13 23.82 30.88 20.89C30.58 20.89 30.28 20.85 29.99 20.77C26.77 19.86 23.13 19.38 19.45 19.38Z" fill="#FF7010" fill-opacity="1.000000" fill-rule="nonzero"/>
		<path id="Vector" d="M10.04 18.25C11.37 17.92 12.75 17.67 14.18 17.5C11.4 14.45 11.14 9.34 13.68 6C11.64 6.06 9.64 6.39 7.78 6.97C6.83 7.88 6.16 9.06 5.85 10.35C5.04 13.55 6.94 17.11 10.04 18.25Z" fill="#FF7010" fill-opacity="1.000000" fill-rule="nonzero"/>
		<path id="Vector" d="M7.1 19.12C4.32 17.04 2.87 13.44 3.7 9.85C3.81 9.39 3.95 8.95 4.12 8.53C3.39 8.94 2.69 9.39 2.05 9.9C-1.96 13 0.32 19.44 5.31 19.42C5.91 19.42 6.51 19.32 7.1 19.12Z" fill="#FF7010" fill-opacity="1.000000" fill-rule="nonzero"/>
		<path id="Vector" d="M25.94 9.22C24.97 9.7 24.18 10.48 23.71 11.47C22.91 13.12 23.11 15.04 24.17 16.48C24.34 16.7 24.94 17.37 25 17.52C26.92 17.77 28.8 18.14 30.59 18.65C30.96 18.75 31.36 18.66 31.64 18.39C31.93 18.13 32.05 17.74 31.97 17.36C31.3 14.1 29.09 11.25 25.94 9.22Z" fill="#FF7010" fill-opacity="1.000000" fill-rule="nonzero"/>
		<path id="Vector" d="M17.18 17.23C18.79 17.15 20.41 17.16 22.03 17.25C20.81 15.24 20.65 12.71 21.72 10.51C22.2 9.52 22.89 8.67 23.74 8.01C21.61 7 19.17 6.33 16.58 6.09C13.07 8.98 13.4 14.76 17.18 17.23Z" fill="#FF7010" fill-opacity="1.000000" fill-rule="nonzero"/>
	</g>
</svg>
