<svg width="20.000000" height="20.000000" viewBox="0 0 20 20" fill="none" xmlns="http://www.w3.org/2000/svg" xmlns:xlink="http://www.w3.org/1999/xlink">
	<desc>
			Created with Pixso.
	</desc>
	<defs>
		<clipPath id="clip2_8796">
			<rect id="Account" rx="-0.500000" width="19.000000" height="19.000000" transform="translate(0.500000 0.500000)" fill="white" fill-opacity="0"/>
		</clipPath>
	</defs>
	<g clip-path="url(#clip2_8796)">
		<path id="Vector (Stroke)" d="M10 0C7.35 0 5.2 2.14 5.2 4.79C5.2 7.43 7.35 9.58 10 9.58C12.64 9.58 14.79 7.43 14.79 4.79C14.79 2.14 12.64 0 10 0ZM6.27 4.79C6.27 2.73 7.94 1.06 10 1.06C12.05 1.06 13.72 2.73 13.72 4.79C13.72 6.84 12.05 8.51 10 8.51C7.94 8.51 6.27 6.84 6.27 4.79Z" fill="#FF7010" fill-opacity="1.000000" fill-rule="evenodd"/>
		<path id="Vector (Stroke)" d="M5.96 11.66C3.59 11.66 1.66 13.64 1.66 16.07L1.66 19.48C1.66 19.77 1.89 20 2.16 20L17.83 20C18.1 20 18.33 19.77 18.33 19.48L18.33 16.07C18.33 13.64 16.4 11.66 14.03 11.66L5.96 11.66ZM2.66 16.07C2.66 14.2 4.14 12.68 5.96 12.68L14.03 12.68C15.85 12.68 17.33 14.2 17.33 16.07L17.33 18.97L2.66 18.97L2.66 16.07Z" fill="#FF7010" fill-opacity="1.000000" fill-rule="evenodd"/>
	</g>
</svg>
